<svg version="1.0" xmlns="http://www.w3.org/2000/svg" width="194.667" height="194.667" viewBox="0 0 146 146"><path d="M112.2 2.1c-2.2 1.1-5.2 3.7-6.6 5.8-2.2 3.1-3.7 4.1-8.4 5.4-3.1.9-8.6 3.5-12.1 5.9-3.6 2.4-8 5.2-9.9 6.4-6.6 3.9-7.3 6.5-7.5 24.1-.2 15.4.3 21.4 2.5 30.1.6 2.3.8 4.6.4 4.9-.3.3-3.8.7-7.8.8-8 .3-13.8 1.1-18.6 2.5-1.8.5-3.2.7-3.2.5 0-.2-3.3 1.2-7.2 3.2-4.2 2.1-9.6 6-12.5 8.9-4.6 4.6-5.3 5.8-5.3 9.2 0 5.5 3.5 9.2 8.8 9.2 3.8 0 6.9-1.7 12.3-6.8 6.2-5.9 21.2-11.8 31.8-12.4l4.4-.3.2 4.2c.3 8.5-3.5 18-9 22.4-6.3 5.2-6.7 5.7-5.5 7.8 1.4 2.7 1.7 2.7 7.1-.7 10.3-6.6 17-17.5 18.5-30.2.7-6.7.6-6.5 4.2-6.8 4.7-.3 17.8-4.9 22.2-7.7 2.3-1.4 4.6-2.5 5.3-2.4 4.7.6 10.7-4 10.7-8.3 0-1.3 2.3-6.8 5.1-12.2 5.4-10.7 6-14.9 2.2-15.4-1.8-.3-2.7.6-4.6 4.7-1.4 2.7-3.5 6.6-4.7 8.6-2.2 3.5-2.4 3.6-6.9 3.1-4.3-.6-5.3-1.3-14.8-11.3L93 44.6l.1-5.2c.2-5.6 1.6-7.2 9-9.2 3.1-.8 3.8-.7 5.9 1.5 8.2 8.6 23.6 6 28.9-4.9 5.8-12.1-2-25.6-15.3-26.4-3.8-.2-6.5.3-9.4 1.7zM94.1 57.5C107 71.2 107 71.2 107 75.6c0 3.4-.4 4.3-2.6 5.3-3 1.3-10.2 3-16.1 3.8-4.2.5-4.2.5-4.9-3.4-.5-2.1-.8-9.8-.9-17.1 0-10.6.3-13.4 1.5-14.2 1.7-1.1 2.6-.5 10.1 7.5z"/><path d="M134.2 37.3c-1.2.6-2.3 1.6-2.3 2.4-.1.7-.2 2-.3 2.9 0 .9 1.1 2.6 2.5 3.6 2.1 1.6 3.1 1.8 4.8.9 7-3.8 2.6-13-4.7-9.8zm-84 70.9c-2 2-1.4 3.7 3.4 10.5 3.5 4.9 5.1 6.3 6.7 6.1 1.2-.2 2.3-1.1 2.5-2 .5-2.4-8.7-15.8-10.8-15.8-.3 0-1.1.5-1.8 1.2zM5.1 121.6c-2.9 3.7-2.6 7 .9 10.5 3.5 3.6 7.3 3.3 10.8-.7 4.4-5.1.9-12.4-5.9-12.4-2.9 0-4.2.6-5.8 2.6zm32.7-1.8c-2.7.5-2.2 3.8 1.4 9 2 2.8 3.3 6.2 3.5 8.6.5 6.7 4.7 9.5 10.1 6.9 5.8-2.8 4.7-11.7-1.6-12.9-1.9-.4-3.9-2.2-6.2-5.5-4-5.9-4.9-6.7-7.2-6.1z"/></svg>